<svg xmlns="http://www.w3.org/2000/svg" direction="ltr"  height="100%" viewBox="-695.597653717407 419.26446870213226 875.4179495573169 76.8479444831479" stroke-linecap="round" stroke-linejoin="round" style="background-color: transparent;" data-color-mode="light" class="tl-container tl-theme__force-sRGB tl-theme__light"><defs><clipPath id="_export_4_r1bq__shape_NgdxQSpM-cGo0tbaugdfI"><path d="M-717.2789319300854,-24.4670610054676L158.1390176272315,-24.4670610054676L158.1390176272315,52.3808834776803L-717.2789319300854,52.3808834776803Z"/></clipPath><clipPath id="_export_4_r1bq__shape_CTud_VNYOtI35d-GGuULW"><path d="M-627.5401990754085,-44.768795638905544L247.87775048190838,-44.768795638905544L247.87775048190838,32.079148844242354L-627.5401990754085,32.079148844242354Z"/></clipPath><clipPath id="_export_4_r1bq__shape_S2X6fNonccMhNJY_uw5tB"><path d="M-589.6138816283267,-22.236101155639403L285.8040679289902,-22.236101155639403L285.8040679289902,54.611843327508495L-589.6138816283267,54.611843327508495Z"/></clipPath><clipPath id="_export_4_r1bq__shape_IPlDZS1M0jlGOxZRuVnz4"><path d="M-442.8287499397511,-22.01300517065704L432.5891996175658,-22.01300517065704L432.5891996175658,54.83493931249086L-442.8287499397511,54.83493931249086Z"/></clipPath><clipPath id="_export_4_r1bq__shape_S4w2XSqF5dP-HZpp6qkkI"><path d="M-435.2434864503347,-46.7766595037516L440.1744631069822,-46.7766595037516L440.1744631069822,30.071284979396296L-435.2434864503347,30.071284979396296Z"/></clipPath><clipPath id="_export_4_r1bq__shape_Z9A7CnCLzBUUO8YJL42-R"><path d="M-442.6056539547682,-39.4144919993181L432.8122956025487,-39.4144919993181L432.8122956025487,37.4334524838298L-442.6056539547682,37.4334524838298Z"/></clipPath><clipPath id="_export_4_r1bq__shape_-yh74Ib3uyafGY9Xyqa5X"><path d="M-446.8444776694421,-27.590404795227983L428.5734718878748,-27.590404795227983L428.5734718878748,49.257539687919916L-446.8444776694421,49.257539687919916Z"/></clipPath><clipPath id="_export_4_r1bq__shape_v0LAUeNotnk-xiq47TAU1"><path d="M-362.7372913309137,-19.78204532082873L512.6806582264032,-19.78204532082873L512.6806582264032,57.06589916231917L-362.7372913309137,57.06589916231917Z"/></clipPath><clipPath id="_export_4_r1bq__shape_vZ3g3e9UR8mCOdFEW8GN0"><path d="M-353.5878037810288,-28.928980705125014L521.8301457762881,-28.928980705125014L521.8301457762881,47.918963778022885L-353.5878037810288,47.918963778022885Z"/></clipPath><clipPath id="_export_4_r1bq__shape_5YhKXu94JSZxZ4E1jtjln"><path d="M-314.9921983789986,-23.797773050519822L560.4257511783183,-23.797773050519822L560.4257511783183,53.050171432628076L-314.9921983789986,53.050171432628076Z"/></clipPath><clipPath id="_export_4_r1bq__shape_uzvz7PuIgdf1pt0SJUPql"><path d="M-291.79021594078387,-28.03659676519362L583.6277336165331,-28.03659676519362L583.6277336165331,48.81134771795428L-291.79021594078387,48.81134771795428Z"/></clipPath><clipPath id="_export_4_r1bq__shape_349oVtcHFntdgiKV5YQGg"><path d="M-557.7206300403218,-29.375172675090994L317.6973195169951,-29.375172675090994L317.6973195169951,47.472771808056905L-557.7206300403218,47.472771808056905Z"/></clipPath><clipPath id="_export_4_r1bq__shape_kQC8s3nCyEIsJagWVlF55"><path d="M-832.7166223365986,-40.2203825694902L42.701327220718326,-40.2203825694902L42.701327220718326,36.6275619136577L-832.7166223365986,36.6275619136577Z"/></clipPath><clipPath id="_export_4_r1bq__shape_Wj3nmPFq_k6xPuGfh0Qln"><path d="M-833.2198372257991,-51.03950268729932L42.19811233151779,-51.03950268729932L42.19811233151779,25.80844179584858L-833.2198372257991,25.80844179584858Z"/></clipPath><clipPath id="_export_4_r1bq__shape_Fw9nv_W_NhsmBnTiPDgTm"><path d="M-754.4667070659333,-16.317675332470344L120.9512424913836,-16.317675332470344L120.9512424913836,60.530269150677555L-754.4667070659333,60.530269150677555Z"/></clipPath><clipPath id="_export_4_r1bq__shape_Y55_cvC5hUlQA-y30J78i"><path d="M-741.8863348359229,-46.0073537952951L133.53161472139402,-46.0073537952951L133.53161472139402,30.840590687852796L-741.8863348359229,30.840590687852796Z"/></clipPath><clipPath id="_export_4_r1bq__shape_NY4OYqMvdNs3c1H6_4q2p"><path d="M-786.2101375931801,-50.37734154318969L89.2078119641368,-50.37734154318969L89.2078119641368,26.470602939958212L-786.2101375931801,26.470602939958212Z"/></clipPath><clipPath id="_export_4_r1bq__shape_cRZPUW09gbWwvkywcszHc"><path d="M-794.7557613654989,-51.089476857549585L80.66218819181802,-51.089476857549585L80.66218819181802,25.758467625598314L-794.7557613654989,25.758467625598314Z"/></clipPath><clipPath id="_export_4_r1bq__shape_9svcZ06rcL0302iIV_9YS"><path d="M-808.6423999955167,-51.62357834331954L66.77554956180018,-51.62357834331954L66.77554956180018,25.224366139828362L-808.6423999955167,25.224366139828362Z"/></clipPath><clipPath id="_export_4_r1bq__shape_q-wvfQgVxpusAex_GpxAM"><path d="M-824.4874107400242,-52.157679829089375L50.9305388172927,-52.157679829089375L50.9305388172927,24.690264654058524L-824.4874107400242,24.690264654058524Z"/></clipPath><clipPath id="_export_4_r1bq__shape_AYN6zes5-9zhjgCAH9KCv"><path d="M-788.1685097076698,-30.97165422688272L87.24943984964705,-30.97165422688272L87.24943984964705,45.87629025626518L-788.1685097076698,45.87629025626518Z"/></clipPath><clipPath id="_export_4_r1bq__shape_-7xgS-fwQmElNVgWRn6o0"><path d="M-648.7773756541617,-59.95896122002273L226.6405739031552,-59.95896122002273L226.6405739031552,16.88898326312517L-648.7773756541617,16.88898326312517Z"/></clipPath><clipPath id="_export_4_r1bq__shape_ziJgGqsEtuR3M2esbqrxe"><path d="M-631.3743726825417,-28.62500738818801L244.04357687477523,-28.62500738818801L244.04357687477523,48.22293709495989L-631.3743726825417,48.22293709495989Z"/></clipPath><clipPath id="_export_4_r1bq__shape_zSKusLf3HS2hvg3uQXZzQ"><path d="M-664.8447324574565,-50.52316830475456L210.57321709986036,-50.52316830475456L210.57321709986036,26.324776178393336L-664.8447324574565,26.324776178393336Z"/></clipPath><clipPath id="_export_4_r1bq__shape_Vd5AXTEtd8E1zvp1mdETT"><path d="M-671.6100179438754,-51.94743893347436L203.8079316134415,-51.94743893347436L203.8079316134415,24.90050554967354L-671.6100179438754,24.90050554967354Z"/></clipPath><clipPath id="_export_4_r1bq__shape_o3pZUbtjP7SdtfnVBPgnq"><path d="M-681.045810859144,-52.30350659065425L194.37213869817288,-52.30350659065425L194.37213869817288,24.544437892493647L-681.045810859144,24.544437892493647Z"/></clipPath><clipPath id="_export_4_r1bq__shape_WR2fzLTGnQT74HtCc2kD2"><path d="M-562.4752810182224,-55.864183162453514L312.9426685390945,-55.864183162453514L312.9426685390945,20.983761320694384L-562.4752810182224,20.983761320694384Z"/></clipPath><clipPath id="_export_4_r1bq__shape_ttjI3-IGdBc5ZA0PsvqZ2"><path d="M-551.793251302824,-56.93238613399342L323.62469825449284,-56.93238613399342L323.62469825449284,19.91555834915448L-551.793251302824,19.91555834915448Z"/></clipPath><clipPath id="_export_4_r1bq__shape_XqrQm9NqkNlTeIUvgCAx9"><path d="M-544.6718981592252,-32.36371778857722L330.7460513980917,-32.36371778857722L330.7460513980917,44.48422669457068L-544.6718981592252,44.48422669457068Z"/></clipPath><clipPath id="_export_4_r1bq__shape_68RfHAdIQOdVOHETKxefA"><path d="M-467.4044375650735,-58.17862293412338L408.01351199224337,-58.17862293412338L408.01351199224337,18.669321549024517L-467.4044375650735,18.669321549024517Z"/></clipPath><clipPath id="_export_4_r1bq__shape_IyJSHfXEi2unzWoKGK_wK"><path d="M-386.57707938522606,-46.24751933628613L488.84087017209083,-46.24751933628613L488.84087017209083,30.600425146861767L-386.57707938522606,30.600425146861767Z"/></clipPath><clipPath id="_export_4_r1bq__shape_aQDSlcerM4xnWLOGNVm5A"><path d="M-396.72500761485446,-50.164263565265514L478.6929419424624,-50.164263565265514L478.6929419424624,26.683680917882384L-396.72500761485446,26.683680917882384Z"/></clipPath><clipPath id="_export_4_r1bq__shape_kubzufezb9aQELS65XAGK"><path d="M-405.8047328729431,-55.50527842296469L469.6132166843738,-55.50527842296469L469.6132166843738,21.342666060183205L-405.8047328729431,21.342666060183205Z"/></clipPath><clipPath id="_export_4_r1bq__shape_0G9jTBZVeaI5Ntg1fT5Um"><path d="M-413.63822133090184,-56.39544756591454L461.77972822641505,-56.39544756591454L461.77972822641505,20.45249691723336L-413.63822133090184,20.45249691723336Z"/></clipPath><clipPath id="_export_4_r1bq__shape_6uylZuTpoEQEOpfc4NC8M"><path d="M-319.34638922959186,-48.91802676513578L556.071560327725,-48.91802676513578L556.071560327725,27.92991771801212L-319.34638922959186,27.92991771801212Z"/></clipPath><clipPath id="_export_4_r1bq__shape_0bOtxBniLcJsfAReVCcfI"><path d="M-327.17987768755063,-53.54690630847506L548.2380718697663,-53.54690630847506L548.2380718697663,23.30103817467284L-327.17987768755063,23.30103817467284Z"/></clipPath><clipPath id="_export_4_r1bq__shape_QRZ4f46kmGzs195ePqdqo"><path d="M-334.3012308311495,-57.10758288027455L541.1167187261674,-57.10758288027455L541.1167187261674,19.74036160287335L-334.3012308311495,19.74036160287335Z"/></clipPath><clipPath id="_export_4_r1bq__shape_CUn6fPCLvNpgYsJ8e4KEm"><path d="M-326.8238100303707,-20.610648019330256L548.5941395269463,-20.610648019330256L548.5941395269463,56.23729646381764L-326.8238100303707,56.23729646381764Z"/></clipPath><clipPath id="_export_4_r1bq__shape_3cLQRw2JEZdc0qMmad8cq"><path d="M-281.4251837399278,-62.44859773797373L593.9927658173891,-62.44859773797373L593.9927658173891,14.39934674517417L-281.4251837399278,14.39934674517417Z"/></clipPath><clipPath id="_export_4_r1bq__shape_gKnismqo2YNWcF2FsTqDl"><path d="M-775.9990337231234,-22.693591520125324L99.41891583419351,-22.693591520125324L99.41891583419351,54.154352963022575L-775.9990337231234,54.154352963022575Z"/></clipPath><clipPath id="_export_4_r1bq__shape_vb9H-HyB1PyPyqK27irrW"><path d="M-783.5285637886235,-20.27338542764312L91.88938576869339,-20.27338542764312L91.88938576869339,56.57455905550478L-783.5285637886235,56.57455905550478Z"/></clipPath><clipPath id="_export_4_r1bq__shape_2aluanDdg11dcvTOl_QeX"><path d="M-793.2093881585521,-20.54229721569675L82.2085613987648,-20.54229721569675L82.2085613987648,56.30564726745115L-793.2093881585521,56.30564726745115Z"/></clipPath><clipPath id="_export_4_r1bq__shape_v6WcomwlM-LhDIu4J4fU0"><path d="M-801.1422859061325,-20.13892953361642L74.27566365118435,-20.13892953361642L74.27566365118435,56.70901494953148L-801.1422859061325,56.70901494953148Z"/></clipPath><clipPath id="_export_4_r1bq__shape_lUmr-j7g_yx_IhFrKHrAC"><path d="M-809.075183653713,-21.483488473884222L66.34276590360389,-21.483488473884222L66.34276590360389,55.36445600926368L-809.075183653713,55.36445600926368Z"/></clipPath><clipPath id="_export_4_r1bq__shape_q5DhlbWc8CM2EtWT8-7sn"><path d="M-740.8272574701249,-15.323246413060588L134.590692087192,-15.323246413060588L134.590692087192,61.52469807008731L-740.8272574701249,61.52469807008731Z"/></clipPath><clipPath id="_export_4_r1bq__shape_ptCOTSgzT3bpBxvaiO4BW"><path d="M-695.1534964180751,-17.028037315595952L180.26445313924182,-17.028037315595952L180.26445313924182,59.819907167551946L-695.1534964180751,59.819907167551946Z"/></clipPath><clipPath id="_export_4_r1bq__shape_n0Bqn6ryC49YlGgufvQPx"><path d="M-636.5784011048931,-21.184310047299846L238.83954845242374,-21.184310047299846L238.83954845242374,55.66363443584805L-636.5784011048931,55.66363443584805Z"/></clipPath><clipPath id="_export_4_r1bq__shape_TXUbzMRIl3qlQBUT8pQzP"><path d="M-507.6891209935002,-60.924432201397735L367.7288285638167,-60.924432201397735L367.7288285638167,15.923512281750163L-507.6891209935002,15.923512281750163Z"/></clipPath><clipPath id="_export_4_r1bq__shape_tq815frWcMWLbLiQVenQ2"><path d="M-183.37193618852086,-41.495135279782176L692.046013368796,-41.495135279782176L692.046013368796,35.35280920336572L-183.37193618852086,35.35280920336572Z"/></clipPath><clipPath id="_export_4_r1bq__shape_7JiMRp7eAb1CXHMw8WH88"><path d="M-68.68821323733846,-26.546089681087096L806.7297363199784,-26.546089681087096L806.7297363199784,50.3018548020608L-68.68821323733846,50.3018548020608Z"/></clipPath><clipPath id="_export_4_r1bq__shape_bbcw7NfARGlA2chdS7A-d"><path d="M-87.8765404237231,-28.107930266025505L787.5414091335938,-28.107930266025505L787.5414091335938,48.74001421712239L-87.8765404237231,48.74001421712239Z"/></clipPath><clipPath id="_export_4_r1bq__shape_xX_EHqz1YVwU8jsMPsRGU"><path d="M-106.1723872758572,-28.107930266025505L769.2455622814597,-28.107930266025505L769.2455622814597,48.74001421712239L-106.1723872758572,48.74001421712239Z"/></clipPath><clipPath id="_export_4_r1bq__shape_Pd3xejZWKWaaJmlDWjH3A"><path d="M-150.01529342330605,-30.53933807200349L725.4026561340108,-30.53933807200349L725.4026561340108,46.30860641114441L-150.01529342330605,46.30860641114441Z"/></clipPath><clipPath id="_export_4_r1bq__shape_Jb1zeGh427mYdjE7AJ9-l"><path d="M-172.24939788771337,-50.391217058081565L703.1685516696035,-50.391217058081565L703.1685516696035,26.456727425066333L-172.24939788771337,26.456727425066333Z"/></clipPath><clipPath id="_export_4_r1bq__shape_PvwbOYznuX-qHh_83S1aG"><path d="M-184.9546004388033,-19.686977559614206L690.4633491185136,-19.686977559614206L690.4633491185136,57.16096692353369L-184.9546004388033,57.16096692353369Z"/></clipPath><clipPath id="_export_4_r1bq__shape_1m7pxyFJpYm1xroa1xl5d"><path d="M-129.79232903005834,-52.41731903013647L745.6256205272585,-52.41731903013647L745.6256205272585,24.43062545301143L-129.79232903005834,24.43062545301143Z"/></clipPath><clipPath id="_export_4_r1bq__shape_IGIG1sZuJNcK5daz_Se_R"><path d="M-122.45157543760638,-24.989356028954603L752.9663741197105,-24.989356028954603L752.9663741197105,51.858588454193296L-122.45157543760638,51.858588454193296Z"/></clipPath><clipPath id="_export_4_r1bq__shape_xOoPdSDqN-DBvsHlE_2un"><path d="M-23.09723943393101,-33.31163896001931L852.3207101233859,-33.31163896001931L852.3207101233859,43.53630552312859L-23.09723943393101,43.53630552312859Z"/></clipPath><clipPath id="_export_4_r1bq__shape_m34UouKpPBX1ivEtb1Z4W"><path d="M-673.184988414693,-15.974994705645486L202.23296114262394,-15.974994705645486L202.23296114262394,60.87294977750241L-673.184988414693,60.87294977750241Z"/></clipPath><clipPath id="_export_4_r1bq__shape_PN0KAQU_hF38zXi6rL00c"><path d="M-700.2748677659174,-48.00443780594827L175.14308179139948,-48.00443780594827L175.14308179139948,28.843506677199628L-700.2748677659174,28.843506677199628Z"/></clipPath><clipPath id="_export_4_r1bq__shape_cMf520n1peeBA3S_a8ZT7"><path d="M-506.6566342652848,-24.62529297571791L368.76131529203207,-24.62529297571791L368.76131529203207,52.22265150742999L-506.6566342652848,52.22265150742999Z"/></clipPath><clipPath id="_export_4_r1bq__shape_hZrmPrJS7nsDuXFrM9Hds"><path d="M-352.30441377276975,-55.60463522019353L523.1135357845471,-55.60463522019353L523.1135357845471,21.24330926295437L-352.30441377276975,21.24330926295437Z"/></clipPath><clipPath id="_export_4_r1bq__shape_67nSE9c7kY2Cb5ga6xElp"><path d="M-348.9807412388752,-63.44850240018445L526.4372083184417,-63.44850240018445L526.4372083184417,13.399442082963446L-348.9807412388752,13.399442082963446Z"/></clipPath><clipPath id="_export_4_r1bq__shape_aT2F5u5H_GEPS4hWKGVxZ"><path d="M-243.9691895997923,-54.682661532005454L631.4487599575245,-54.682661532005454L631.4487599575245,22.165282951142444L-243.9691895997923,22.165282951142444Z"/></clipPath><clipPath id="_export_4_r1bq__shape_k0ZrjtaaHnsvsjGqmPMmH"><path d="M-256.4829935168295,-55.436505141465545L618.9349560404874,-55.436505141465545L618.9349560404874,21.411439341682353L-256.4829935168295,21.411439341682353Z"/></clipPath><clipPath id="_export_4_r1bq__shape_bA4y5w6LnvQrkPTIRU6Ml"><path d="M-269.29833487765075,-54.98419897578947L606.1196146796661,-54.98419897578947L606.1196146796661,21.86374550735843L-269.29833487765075,21.86374550735843Z"/></clipPath><clipPath id="_export_4_r1bq__shape_tt7yI89u54weWOAvca73F"><path d="M-845.696254069976,-13.403446718410407L29.721695487340867,-13.403446718410407L29.721695487340867,63.44449776473749L-845.696254069976,63.44449776473749Z"/></clipPath><clipPath id="_export_4_r1bq__shape_-Z0StVrks4s3s_gZ__GDB"><path d="M-856.849279319023,-11.896281144214868L18.568670238293862,-11.896281144214868L18.568670238293862,64.95166333893303L-856.849279319023,64.95166333893303Z"/></clipPath></defs><g transform="matrix(1, 0, 0, 1, 21.6813, 443.7315)" opacity="1" clip-path="url(#_export_4_r1bq__shape_NgdxQSpM-cGo0tbaugdfI)"><g transform="scale(1)"><path d="M0.2652,3.3946 T-1.37,3.5302 -4.4331,3.8303 -7.3411,4.1728 -10.3833,4.4879 -13.5779,4.922 -16.5806,5.9043 -18.8874,7.9693 -20.628,10.5285 -22.1032,13.2555 -23.5241,16.4302 -24.9837,19.6422 -26.6093,22.6372 -28.6886,25.2932 -31.0899,27.2488 -33.7801,28.3077 -36.9023,28.6955 -40.357,28.7153 -44.807,28.2614 -49.0264,27.4406 -52.1704,26.5441 -56.1678,25.2027 -60.0957,23.6417 -62.9718,22.1979 -66.2408,20.4534 -69.6668,18.5099 -72.7124,16.2637 -75.0213,13.6876 -76.2638,11.0195 -76.9256,7.9658 -77.0999,4.7871 -76.6787,1.5828 -75.4659,-1.2081 -73.4196,-3.2923 -70.2118,-4.8112 -66.3751,-5.2996 -62.9988,-4.7542 -59.7936,-3.4544 -56.7261,-1.6115 -54.3215,0.4109 -52.2874,2.8248 -50.6924,5.793 -50.0351,9.2317 -49.9667,11.0989 A3.8037,3.8037 0 0 1 -57.5733,11.2011 T-57.7162,9.5791 -58.9147,6.6267 -61.2001,4.3975 -63.9275,2.85 -66.9077,2.1268 -69.2131,3.2468 -70.0368,6.0391 -69.5455,9.4089 -67.8566,12.0973 -64.9288,14.0499 -61.1405,16.1392 -57.7022,17.7466 -54.1501,18.9963 -49.2432,20.242 -44.3433,21.0264 -40.4526,21.2133 -36.905,21.1827 -34.1267,20.1023 -32.3741,17.5712 -30.9775,14.7327 -29.7018,11.8814 -28.335,9.0459 -26.481,6.0117 -24.1853,2.9765 -21.9201,0.7197 -19.3871,-0.7405 -16.0424,-1.7296 -12.5751,-2.2957 -9.0003,-2.6361 -5.2976,-2.9762 -1.9551,-3.2704 -0.2652,-3.3946 A3.4049,3.4049 0 0 1 0.2652,3.3946 Z" stroke-linecap="round" fill="#1d1d1d"/></g></g><g transform="matrix(1, 0, 0, 1, -68.0575, 464.0333)" opacity="1" clip-path="url(#_export_4_r1bq__shape_CTud_VNYOtI35d-GGuULW)"><g transform="scale(1)"><path d="M-2.4991,2.3561 T-3.342,1.4192 -5.4316,-1.0851 -7.462,-4.023 -8.9491,-7.0629 -9.9993,-10.2451 -10.436,-13.3485 -10.2367,-16.5113 -9.6416,-19.5688 -10.6691,-21.8791 -13.6326,-23.3744 -16.2808,-23.073 -16.9371,-20.4768 -15.8706,-17.3886 -14.7496,-14.3125 -14.2355,-11.1055 -14.3832,-7.9156 -15.35,-4.7231 -17.1959,-1.8425 -19.6793,0.266 -22.9308,1.825 -27.0953,2.8357 -31.2145,3.1665 -35.0477,3.1586 -38.8245,2.9042 -42.4404,2.3569 -46.0764,1.6147 -49.2089,0.7629 -51.8203,-0.6858 -53.9199,-3.1459 -55.1105,-6.364 -55.3829,-10.0568 -54.3958,-13.4168 -52.3432,-15.6926 -51.1689,-16.5593 A3.8704,3.8704 0 0 1 -46.7607,-10.1963 T-47.3936,-9.045 -47.0995,-6.851 -44.4425,-5.4205 -41.2586,-4.7722 -38.2494,-4.3735 -34.994,-4.2423 -31.7123,-4.3482 -28.5921,-4.6876 -25.6878,-5.5033 -23.2504,-7.2154 -22.1409,-9.9092 -22.5295,-12.8111 -23.5529,-15.7587 -24.4931,-19.3392 -24.665,-23.0816 -23.8749,-26.2511 -22.3712,-28.752 -20.0404,-30.7399 -16.5268,-31.6302 -13.0986,-31.1408 -10.4061,-30.0926 -7.7823,-28.696 -5.2063,-26.7096 -3.0548,-24.1761 -2.1292,-20.6558 -2.6839,-16.7655 -3.2756,-13.607 -2.8959,-10.8038 -1.8868,-8.0416 -0.2537,-5.4131 1.6137,-3.2523 2.4991,-2.3561 A3.4346,3.4346 0 0 1 -2.4991,2.3561 ZM-48.4068,-17.2077 T-46.9044,-16.9884 -45.4021,-16.7691 A3.8695,3.8695 0 0 1 -46.5179,-9.1109 T-48.0203,-9.3294 -49.5228,-9.5478 A3.8704,3.8704 0 0 1 -48.4068,-17.2077 Z" stroke-linecap="round" fill="#1d1d1d"/></g></g><g transform="matrix(1, 0, 0, 1, -105.9838, 441.5006)" opacity="1" clip-path="url(#_export_4_r1bq__shape_S2X6fNonccMhNJY_uw5tB)"><g transform="scale(1)"><path d="M2.9823,-1.6398 T3.6051,-0.5523 4.9862,2.0322 6.182,4.9515 6.8141,7.7874 7.0085,9.2011 A3.6624,3.6624 0 0 1 -0.3085,9.5389 T-0.531,8.0708 -1.3466,5.1146 -2.461,2.6331 -2.9823,1.6398 A3.4034,3.4034 0 0 1 2.9823,-1.6398 Z" stroke-linecap="round" fill="#1d1d1d"/></g></g><g transform="matrix(1, 0, 0, 1, -252.7689, 441.2775)" opacity="1" clip-path="url(#_export_4_r1bq__shape_IPlDZS1M0jlGOxZRuVnz4)"><g transform="scale(1)"><path d="M3.1528,-0.2652 T3.2485,0.9552 3.4602,4.0008 3.4864,7.8583 2.9132,11.5661 1.3616,15.8293 -0.8166,20.254 -3.6851,23.8046 -7.4057,26.9105 -11.4483,29.4651 -15.2016,31.4908 -18.6537,33.0441 -22.2224,34.05 -25.8108,34.4482 -30.2459,34.1895 -34.8107,33.4994 -39.5132,32.3208 -45.3926,29.9667 -50.0686,27.4934 -52.8508,25.7208 -55.6252,23.6433 -58.1042,21.0417 -59.4198,18.2412 -59.9261,14.9259 -59.891,11.6168 -59.4611,8.6713 -58.172,5.1278 -56.4258,1.7748 -54.8031,-0.7063 -52.902,-2.9634 -50.7223,-4.8972 -47.7025,-6.7513 -44.0768,-8.277 -40.7819,-9.0208 -37.8277,-9.3088 -34.7377,-9.3267 -31.474,-8.7873 -28.5021,-7.4474 -26.1059,-5.5528 -24.0761,-2.9198 -22.5733,0.0831 -21.8739,3.0909 -21.9622,6.3822 -22.8529,9.3809 -24.5886,11.9604 -27.5377,13.8999 -30.8092,14.408 -33.8667,13.6335 -37.513,11.5505 -39.564,10.0914 A3.89,3.89 0 0 1 -34.496,4.1886 T-33.5994,4.9488 -31.5946,6.6442 -29.8708,6.157 -29.5409,3.1745 -30.9335,0.2567 -33.4933,-1.6256 -36.7595,-2.0981 -40.1444,-1.7993 -43.2027,-1.0295 -46.2021,0.5098 -48.7893,2.8171 -50.5977,5.3394 -52.0836,8.183 -53.1582,11.6272 -53.5104,15.0083 -52.8827,17.8546 -50.5348,20.435 -47.4566,22.4815 -43.2409,24.3219 -38.0214,26.0237 -33.7205,26.9978 -29.7851,27.5833 -25.5798,27.736 -21.5897,27.1087 -18.1026,25.7398 -14.613,23.9002 -11.2841,21.8486 -8.0855,19.1221 -5.418,15.65 -3.7487,11.6199 -2.9425,7.6889 -2.8775,4.3548 -3.0433,1.4844 -3.1528,0.2652 A3.164,3.164 0 0 1 3.1528,-0.2652 Z" stroke-linecap="round" fill="#1d1d1d"/></g></g><g transform="matrix(1, 0, 0, 1, -260.3542, 466.0411)" opacity="1" clip-path="url(#_export_4_r1bq__shape_S4w2XSqF5dP-HZpp6qkkI)"><g transform="scale(1)"><path d="M1.6437,-2.7378 T2.8967,-1.9419 6.0092,0.0352 9.3943,2.0577 12.5549,3.6907 15.287,5.0447 16.3842,5.607 A3.2111,3.2111 0 0 1 13.5158,11.353 T12.4069,10.8141 9.5536,9.3855 6.2018,7.5375 2.7669,5.3901 -0.3522,3.4695 -1.6437,2.7378 A3.1933,3.1933 0 0 1 1.6437,-2.7378 Z" stroke-linecap="round" fill="#1d1d1d"/></g></g><g transform="matrix(1, 0, 0, 1, -252.992, 458.679)" opacity="1" clip-path="url(#_export_4_r1bq__shape_Z9A7CnCLzBUUO8YJL42-R)"><g transform="scale(1)"><path d="M1.2163,-2.8365 T2.6261,-2.1914 6.5434,-0.6954 11.4698,0.8337 16.0706,1.9564 18.2526,2.401 A3.0161,3.0161 0 0 1 16.9874,8.299 T15.7593,8.034 12.2621,7.1793 7.2946,5.7587 3.1301,4.4592 0.2239,3.4135 -1.2163,2.8365 A3.0863,3.0863 0 0 1 1.2163,-2.8365 Z" stroke-linecap="round" fill="#1d1d1d"/></g></g><g transform="matrix(1, 0, 0, 1, -248.7532, 446.8549)" opacity="1" clip-path="url(#_export_4_r1bq__shape_-yh74Ib3uyafGY9Xyqa5X)"><g transform="scale(1)"><path d="M0,-3.1157 T1.6279,-3.0649 5.7081,-3.0218 10.3241,-3.0541 13.8289,-3.067 15.17,-3.0552 A3.0552,3.0552 0 0 1 15.17,3.0552 T13.8289,3.067 10.3241,3.0541 5.7081,3.0218 1.6279,3.0649 0,3.1157 A3.1157,3.1157 0 0 1 0,-3.1157 Z" stroke-linecap="round" fill="#1d1d1d"/></g></g><g transform="matrix(1, 0, 0, 1, -332.8604, 439.0465)" opacity="1" clip-path="url(#_export_4_r1bq__shape_v0LAUeNotnk-xiq47TAU1)"><g transform="scale(1)"><path d="M2.713,-1.3268 T3.6353,0.9319 5.2704,5.0984 6.5199,8.4356 7.6872,12.3647 8.2836,16.843 7.7078,20.2588 5.4724,23.013 2.1439,24.7085 -0.9161,25.1243 -3.9029,25.1727 -5.4643,25.1835 A3.0957,3.0957 0 0 1 -5.6957,18.9965 T-4.1379,18.8906 -0.1372,18.6349 2.5951,17.115 2.5188,13.6892 1.688,10.2877 0.4713,7.2487 -1.4966,3.4412 -2.713,1.3268 A3.0201,3.0201 0 0 1 2.713,-1.3268 Z" stroke-linecap="round" fill="#1d1d1d"/></g></g><g transform="matrix(1, 0, 0, 1, -342.0098, 448.1934)" opacity="1" clip-path="url(#_export_4_r1bq__shape_vZ3g3e9UR8mCOdFEW8GN0)"><g transform="scale(1)"><path d="M-0.1404,2.7136 T-2.1202,2.5388 -7.5403,2.1475 -13.54,1.739 -17.8335,1.5152 -21.4563,1.6405 -24.1232,2.9743 -25.6535,5.4361 -27.2738,8.2877 -28.6122,11.6007 -29.0851,15.3421 -28.1301,18.5971 -25.7272,20.6931 -22.5956,21.674 -19.3361,21.0193 -18.5007,18.1828 -19.2385,16.1461 A3.7251,3.7251 0 0 1 -13.7815,11.0739 T-12.7014,12.2227 -10.7618,15.0067 -9.8757,18.0738 -10.2922,21.014 -11.7496,24.1187 -13.8016,26.746 -16.2301,28.3259 -19.4841,28.8794 -23.352,28.6087 -26.8698,27.7039 -29.7677,26.128 -32.4304,23.7101 -34.3083,20.9032 -35.0946,17.5149 -35.2209,13.7917 -34.8107,10.4231 -33.5497,6.9436 -31.6955,3.7092 -29.8235,1.0102 -27.6678,-1.3203 -24.9538,-2.7952 -21.4425,-3.0843 -17.6663,-2.898 -13.3762,-2.7889 -7.3357,-2.7698 -1.847,-2.744 0.1404,-2.7136 A2.7172,2.7172 0 0 1 -0.1404,2.7136 Z" stroke-linecap="round" fill="#1d1d1d"/></g></g><g transform="matrix(1, 0, 0, 1, -380.6055, 443.0622)" opacity="1" clip-path="url(#_export_4_r1bq__shape_5YhKXu94JSZxZ4E1jtjln)"><g transform="scale(1)"><path d="M2.5547,1.9412 T1.5448,3.1805 -0.8331,6.4064 -3.1058,9.9615 -4.6474,12.8868 -5.6462,15.7028 -6.008,17.162 A3.2608,3.2608 0 0 1 -12.292,15.418 T-11.7228,13.5222 -10.3069,10.0059 -8.3701,6.6382 -5.8408,2.7801 -3.4782,-0.636 -2.5547,-1.9412 A3.2086,3.2086 0 0 1 2.5547,1.9412 Z" stroke-linecap="round" fill="#1d1d1d"/></g></g><g transform="matrix(1, 0, 0, 1, -403.8074, 447.3011)" opacity="1" clip-path="url(#_export_4_r1bq__shape_uzvz7PuIgdf1pt0SJUPql)"><g transform="scale(1)"><path d="M3.2254,-1.1693 T3.6102,-0.0422 4.5438,2.6816 5.452,6.2699 5.9655,9.8534 5.86,12.8732 4.7235,15.7483 2.2782,18.286 -1.0426,19.6074 -4.447,19.8134 -8.2383,19.46 -11.9555,18.8127 -15.1581,17.7704 -17.7625,15.9301 -19.3182,12.8538 -20.6514,9.5966 -23.1785,7.4999 -26.5525,6.8426 -28.2707,8.3764 -28.1968,11.2365 -28.3429,14.8883 -29.7347,18.1092 -32.3134,19.691 -35.252,20.0728 -38.1898,19.297 -40.9762,17.7801 -43.2641,15.7891 -45.0087,13.4914 -46.0068,10.6708 -46.3057,7.5663 -45.8989,3.8079 -45.4685,1.544 A3.9168,3.9168 0 0 1 -37.9715,3.816 T-38.2077,4.6161 -38.4221,6.9942 -37.6995,9.8572 -36.4133,12.4684 -35.9677,12.3027 -36.1245,9.1776 -35.5592,5.8418 -33.6635,2.4733 -31.0761,0.1632 -28.29,-0.7865 -25.1791,-0.9196 -21.5795,-0.2178 -18.1192,1.3079 -15.5914,3.6624 -13.7468,6.698 -12.7268,9.905 -10.9096,11.78 -6.9538,12.3623 -2.9154,12.5733 -1.1127,10.8372 -1.2191,7.631 -1.9218,4.764 -2.7985,2.2812 -3.2254,1.1693 A3.4308,3.4308 0 0 1 3.2254,-1.1693 Z" stroke-linecap="round" fill="#1d1d1d"/></g></g><g transform="matrix(1, 0, 0, 1, -137.877, 448.6396)" opacity="1" clip-path="url(#_export_4_r1bq__shape_349oVtcHFntdgiKV5YQGg)"><g transform="scale(1)"><path d="M3.3256,0 T3.3272,0.9667 3.2999,3.4124 2.6981,7.1413 1.6564,10.8529 0.2525,13.7878 -2.7926,16.6968 -6.3667,18.6809 -9.21,19.5228 -12.0424,19.8608 -15.6122,19.5178 -19.0534,18.687 -22.1247,17.3811 -25.0883,15.3313 -27.0479,12.7892 -28.4687,10.1617 -29.8638,7.5338 -32.1004,5.2562 -35.2576,4.3154 -38.1356,5.1764 -39.9172,7.4385 -40.9444,10.2649 -41.9053,13.2164 -43.6181,16.2006 -46.4892,18.5691 -49.9092,20.104 -53.1409,20.9361 -56.3983,21.1885 -59.9052,21.2224 -63.1745,21.098 -66.3978,20.7903 -69.5694,19.9656 -72.4843,18.273 -74.9008,16.153 -77.2145,13.4867 -79.3607,10.2525 -80.6201,6.8988 -81.0735,3.3816 -81.0646,0.0681 -80.4447,-3.0744 -78.6747,-6.2561 -75.7819,-8.7704 -72.7122,-10.0029 -69.4553,-9.9722 -66.1736,-8.8044 -63.7077,-6.8368 -62.0339,-4.3344 -61.1914,-1.2028 -60.9687,0.5564 A3.9556,3.9556 0 0 1 -68.872,0.9094 T-69.1519,-0.365 -70.805,-2.1458 -72.9223,-1.4652 -73.6595,1.1705 -73.5328,4.181 -72.4914,7.1809 -70.6002,9.6565 -68.5478,11.7709 -65.9641,13.1657 -63.0427,13.5375 -59.9921,13.5451 -56.8956,13.4308 -53.9377,13.0711 -50.9327,12.1744 -48.8753,9.9544 -47.8316,6.7401 -46.7376,3.8685 -45.164,1.2782 -42.8352,-1.0998 -40.1386,-2.6883 -36.9526,-3.2839 -33.0571,-3.021 -29.0901,-1.5806 -25.9541,0.557 -23.9153,2.934 -22.3675,5.7699 -20.6769,8.9393 -18.2312,11.2813 -14.9457,12.3757 -11.5835,12.7114 -8.403,11.9956 -5.7785,10.2164 -4.2003,7.1778 -3.4808,3.6178 -3.3272,0.9667 -3.3256,0 A3.3256,3.3256 0 0 1 3.3256,0 ZM-61.2562,2.223 T-61.3579,2.4813 -61.4596,2.7397 A3.9618,3.9618 0 0 1 -68.7995,-0.2451 T-68.692,-0.5012 -68.5846,-0.7572 A3.9556,3.9556 0 0 1 -61.2562,2.223 ZM-63.0375,4.6117 T-63.8317,5.0967 -64.6259,5.5818 A3.9469,3.9469 0 0 1 -68.7941,-1.1218 T-68.0078,-1.6195 -67.2215,-2.1172 A3.9618,3.9618 0 0 1 -63.0375,4.6117 Z" stroke-linecap="round" fill="#1d1d1d"/></g></g><g transform="matrix(1, 0, 0, 1, 137.119, 459.4849)" opacity="1" clip-path="url(#_export_4_r1bq__shape_kQC8s3nCyEIsJagWVlF55)"><g transform="scale(1)"><path d="M0,2.9621 T-1.3201,2.9618 -4.1063,2.9948 -7.8129,2.9187 -11.4833,2.8434 -14.3282,2.9031 -18.0945,2.994 -22.5064,3.1202 -26.0225,3.1692 -28.9015,3.1514 -31.8971,3.0171 -35.6549,2.6291 -39.863,2.1826 -43.5735,1.8751 -46.8564,1.5864 -50.5592,1.2685 -54.5588,0.9036 -57.9796,0.3729 -61.0676,-0.4781 -63.8649,-2.1183 -65.535,-4.8149 -65.8975,-8.4344 -65.2814,-11.9105 -63.8209,-14.4823 -61.6651,-16.4859 -58.4999,-18.3251 -54.9852,-19.8928 -52.0298,-21.0136 -49.1121,-21.8596 -45.984,-22.2724 -42.875,-22.3598 -39.6455,-22.3793 -36.4474,-22.1331 -33.4387,-21.5455 -30.0527,-20.9845 -25.9609,-20.6059 -21.9814,-20.4216 -18.276,-20.4377 -15.8786,-20.8654 -15.4179,-21.2408 A3.6046,3.6046 0 0 1 -8.7421,-18.5192 T-9.4773,-17.1235 -11.5859,-14.8925 -14.5229,-13.8264 -18.1863,-13.4874 -22.1083,-13.3966 -26.4406,-13.4461 -31.0738,-13.648 -35.573,-14.3334 -39.6379,-14.8577 -43.3203,-14.8543 -46.9309,-14.6404 -49.8989,-13.9509 -52.7277,-12.9091 -55.7167,-11.66 -58.2195,-9.9813 -59.0247,-7.4886 -57.0677,-5.4429 -53.7055,-4.5695 -49.9873,-3.901 -46.3759,-3.3721 -43.24,-3.0453 -39.5768,-2.8584 -33.9447,-2.724 -28.9022,-2.653 -26.0258,-2.6722 -22.515,-2.6286 -18.1183,-2.5224 -14.3773,-2.4652 -11.5519,-2.4577 -7.9592,-2.6286 -4.2156,-2.8808 -1.3202,-2.9618 0,-2.9621 A2.9621,2.9621 0 0 1 0,2.9621 Z" stroke-linecap="round" fill="#1d1d1d"/></g></g><g transform="matrix(1, 0, 0, 1, 137.6222, 470.304)" opacity="1" clip-path="url(#_export_4_r1bq__shape_Wj3nmPFq_k6xPuGfh0Qln)"><g transform="scale(1)"><path d="M-0.2572,2.6919 T-2.655,2.3345 -8.5958,1.5274 -15.1697,0.8175 -21.1827,0.3434 -26.7478,0.0039 -31.642,-0.3161 -35.9685,-0.5799 -39.5447,-0.6234 -42.9172,-0.5944 -46.8885,-0.4155 -50.694,-0.0808 -54.4451,0.0836 -58.2558,0.0475 -61.5032,0.0626 -64.6428,0.2 -67.6655,0.2546 -70.5196,0.2337 -73.1975,0.9029 -72.7378,2.2499 -69.2885,3.0897 -65.7926,3.5656 -61.8737,3.3828 -59.7098,2.8808 A3.818,3.818 0 0 1 -57.5302,10.1992 T-58.7306,10.5705 -61.6263,11.2646 -64.7075,11.4201 -67.6101,11.0075 -70.9805,10.4463 -74.3644,9.6436 -77.3216,8.1265 -79.6937,6.0137 -81.0564,3.5164 -81.2999,0.6793 -80.2328,-2.4018 -78.141,-4.9937 -75.1163,-6.29 -71.3528,-6.6531 -67.8276,-6.4866 -64.4312,-6.2217 -61.1738,-5.9915 -58.0545,-5.681 -54.4152,-5.3446 -50.878,-5.1113 -46.9887,-4.9288 -42.8231,-4.7667 -39.3977,-4.5878 -35.7504,-4.3556 -31.4422,-4.1127 -26.5746,-3.9288 -20.9429,-3.7694 -14.8145,-3.536 -8.1394,-3.1551 -2.1649,-2.795 0.2572,-2.6919 A2.7042,2.7042 0 0 1 -0.2572,2.6919 Z" stroke-linecap="round" fill="#1d1d1d"/></g></g><g transform="matrix(1, 0, 0, 1, 58.8691, 435.5821)" opacity="1" clip-path="url(#_export_4_r1bq__shape_Fw9nv_W_NhsmBnTiPDgTm)"><g transform="scale(1)"><path d="M3.1573,-1.288 T3.6363,-0.0098 4.7404,3.1377 5.7389,6.657 6.2125,10.4393 5.9331,14.1382 4.7994,17.2903 2.8613,19.9655 0.0915,21.4372 -3.1442,21.9194 -6.3872,21.9736 -9.4791,21.6966 -12.4792,21.3037 -15.3076,21.1373 -16.6349,21.1327 A3.7728,3.7728 0 0 1 -16.5851,13.5873 T-15.5873,13.6011 -13.0692,13.7111 -9.7263,14.1485 -6.1077,14.5716 -2.8148,14.1537 -0.9129,12.031 -0.7435,8.7538 -1.5166,5.4418 -2.6057,2.536 -3.1573,1.288 A3.4099,3.4099 0 0 1 3.1573,-1.288 Z" stroke-linecap="round" fill="#1d1d1d"/></g></g><g transform="matrix(1, 0, 0, 1, 46.2887, 465.2718)" opacity="1" clip-path="url(#_export_4_r1bq__shape_Y55_cvC5hUlQA-y30J78i)"><g transform="scale(1)"><path d="M3.3118,-0.7207 T3.5637,0.6073 4.0928,3.664 4.5127,6.9455 4.3561,10.1344 2.58,13.1487 -0.9287,15.2115 -4.5144,16.233 -7.5759,16.8673 -10.5553,17.3752 -13.9899,17.5276 -15.9528,17.4693 A3.6308,3.6308 0 0 1 -15.7472,10.2107 T-14.1888,10.2939 -10.9023,10.1745 -7.612,9.5913 -4.1265,9.207 -2.2294,7.7642 -2.4611,4.8352 -2.9891,2.0329 -3.3118,0.7207 A3.3893,3.3893 0 0 1 3.3118,-0.7207 Z" stroke-linecap="round" fill="#1d1d1d"/></g></g><g transform="matrix(1, 0, 0, 1, 90.6125, 469.6418)" opacity="1" clip-path="url(#_export_4_r1bq__shape_NY4OYqMvdNs3c1H6_4q2p)"><g transform="scale(1)"><path d="M3.267,-0.211 T3.3634,0.7755 3.68,3.0063 3.9004,4.2506 A3.4165,3.4165 0 0 1 -2.8404,5.3694 T-3.0233,3.7656 -3.2366,1.1864 -3.267,0.211 A3.2738,3.2738 0 0 1 3.267,-0.211 Z" stroke-linecap="round" fill="#1d1d1d"/></g></g><g transform="matrix(1, 0, 0, 1, 99.1581, 470.3539)" opacity="1" clip-path="url(#_export_4_r1bq__shape_cRZPUW09gbWwvkywcszHc)"><g transform="scale(1)"><path d="M3.2215,-0.4755 T3.3796,0.6217 3.8868,4.5213 4.2358,7.3236 A3.3626,3.3626 0 0 1 -2.4558,7.9964 T-2.673,5.3321 -3.0559,1.5716 -3.2215,0.4755 A3.2564,3.2564 0 0 1 3.2215,-0.4755 Z" stroke-linecap="round" fill="#1d1d1d"/></g></g><g transform="matrix(1, 0, 0, 1, 113.0447, 470.888)" opacity="1" clip-path="url(#_export_4_r1bq__shape_9svcZ06rcL0302iIV_9YS)"><g transform="scale(1)"><path d="M3.213,-0.1048 T3.2401,1.1542 3.3967,4.0064 3.5737,6.56 3.6212,7.5204 A3.2642,3.2642 0 0 1 -2.9012,7.7996 T-2.9359,6.8387 -3.0369,4.2494 -3.158,1.363 -3.213,0.1048 A3.2147,3.2147 0 0 1 3.213,-0.1048 Z" stroke-linecap="round" fill="#1d1d1d"/></g></g><g transform="matrix(1, 0, 0, 1, 128.8898, 471.4221)" opacity="1" clip-path="url(#_export_4_r1bq__shape_q-wvfQgVxpusAex_GpxAM)"><g transform="scale(1)"><path d="M3.266,0.1572 T3.2357,1.0104 3.2109,4.2437 3.2165,6.6237 A3.3967,3.3967 0 0 1 -3.5765,6.5563 T-3.473,4.0518 -3.3178,0.695 -3.266,-0.1572 A3.2698,3.2698 0 0 1 3.266,0.1572 Z" stroke-linecap="round" fill="#1d1d1d"/></g></g><g transform="matrix(1, 0, 0, 1, 92.5709, 450.2361)" opacity="1" clip-path="url(#_export_4_r1bq__shape_AYN6zes5-9zhjgCAH9KCv)"><g transform="scale(1)"><path d="M0.0534,-1.7429 T1.3926,-1.658 4.2179,-1.4839 7.3255,-1.3325 10.5384,-1.1856 13.7395,-0.9667 16.8836,-0.7565 19.7007,-0.672 22.0348,-0.6531 25.1556,-0.7241 27.2251,-0.8057 A1.5157,1.5157 0 0 1 27.2549,2.2257 T26.1035,2.2211 23.9406,2.181 21.9247,2.04 19.6228,1.8801 16.7513,1.787 13.6128,1.6708 10.4871,1.5829 7.2922,1.6103 4.1446,1.6927 1.2886,1.74 -0.0534,1.7429 A1.7437,1.7437 0 0 1 0.0534,-1.7429 Z" stroke-linecap="round" fill="#1d1d1d"/></g></g><g transform="matrix(1, 0, 0, 1, -46.8203, 479.2234)" opacity="1" clip-path="url(#_export_4_r1bq__shape_-7xgS-fwQmElNVgWRn6o0)"><g transform="scale(1)"><path d="M-2.2069,0.5517 T-2.3921,-0.2644 -2.8745,-2.0917 -3.7286,-3.9898 -5.4303,-4.2816 -7.4715,-3.0342 -9.0438,-1.6071 -10.5774,0.2251 -12.3061,2.2266 -14.0369,3.653 -15.9722,4.441 -18.5322,4.7985 -21.1684,4.862 -23.8193,4.7854 -26.9837,4.3974 -30.0631,3.7395 -32.7397,2.9354 -35.0327,1.9855 -37.0655,0.916 -38.9764,-0.3032 -40.6581,-1.8375 -41.6718,-3.6501 -41.537,-5.8107 -40.1799,-8.0208 -38.2578,-9.2991 -36.2632,-9.6032 -34.1863,-9.2785 -32.4019,-8.4607 -31.6405,-7.9745 A2.5586,2.5586 0 0 1 -34.5795,-3.7855 T-35.1076,-4.186 -36.5532,-4.8267 -36.5836,-4.3336 -34.7996,-3.0919 -33.0537,-2.1538 -31.2287,-1.3264 -28.9992,-0.6368 -26.4552,-0.1632 -23.7745,0.0448 -21.2733,0.0402 -18.8905,-0.0286 -16.7605,-0.5377 -15.0673,-1.9663 -13.6507,-3.7118 -12.1076,-5.4585 -10.2541,-7.0424 -8.5058,-8.0959 -6.5148,-8.9782 -3.8972,-9.3577 -1.6081,-8.6291 -0.2387,-7.1441 0.7152,-5.4158 1.4356,-3.3422 1.9863,-1.359 2.2069,-0.5517 A2.2749,2.2749 0 0 1 -2.2069,0.5517 Z" stroke-linecap="round" fill="#1d1d1d"/></g></g><g transform="matrix(1, 0, 0, 1, -64.2233, 447.8895)" opacity="1" clip-path="url(#_export_4_r1bq__shape_ziJgGqsEtuR3M2esbqrxe)"><g transform="scale(1)"><path d="M1.8708,-0.5913 T2.2599,0.9834 2.9836,3.6404 3.9193,6.4265 5.2354,9.6524 5.9504,11.1743 A1.8425,1.8425 0 0 1 2.5896,12.6857 T1.8581,10.9911 0.5705,7.5369 -0.3415,4.6966 -1.2841,2.1037 -1.8708,0.5913 A1.962,1.962 0 0 1 1.8708,-0.5913 Z" stroke-linecap="round" fill="#1d1d1d"/></g></g><g transform="matrix(1, 0, 0, 1, -30.7529, 469.7876)" opacity="1" clip-path="url(#_export_4_r1bq__shape_zSKusLf3HS2hvg3uQXZzQ)"><g transform="scale(1)"><path d="M2.1187,0.3678 T1.9358,1.2967 1.522,3.5442 1.1181,5.8007 0.8389,7.318 0.7328,7.8975 A2.1929,2.1929 0 0 1 -3.5728,7.0625 T-3.4546,6.4854 -3.1183,4.9913 -2.6503,2.7894 -2.2595,0.5684 -2.1187,-0.3678 A2.1504,2.1504 0 0 1 2.1187,0.3678 Z" stroke-linecap="round" fill="#1d1d1d"/></g></g><g transform="matrix(1, 0, 0, 1, -23.9876, 471.2119)" opacity="1" clip-path="url(#_export_4_r1bq__shape_Vd5AXTEtd8E1zvp1mdETT)"><g transform="scale(1)"><path d="M2.1185,-0.0932 T2.142,0.84 2.251,3.4918 2.3794,6.6442 2.5468,9.1698 2.7505,10.9814 2.8296,11.7012 A2.1319,2.1319 0 0 1 -1.4096,12.1588 T-1.4859,11.4387 -1.6566,9.4324 -1.7659,6.7627 -1.8912,3.6679 -2.0599,1.025 -2.1185,0.0932 A2.1205,2.1205 0 0 1 2.1185,-0.0932 Z" stroke-linecap="round" fill="#1d1d1d"/></g></g><g transform="matrix(1, 0, 0, 1, -14.5518, 471.568)" opacity="1" clip-path="url(#_export_4_r1bq__shape_o3pZUbtjP7SdtfnVBPgnq)"><g transform="scale(1)"><path d="M1.9156,-0.918 T2.3349,0.0277 3.4261,2.4774 4.5437,5.0656 5.3184,7.5637 5.6474,8.9775 A2.138,2.138 0 0 1 1.4726,9.9025 T1.2224,8.7022 0.6188,6.5152 -0.3506,4.1426 -1.4412,1.8373 -1.9156,0.918 A2.1242,2.1242 0 0 1 1.9156,-0.918 Z" stroke-linecap="round" fill="#1d1d1d"/></g></g><g transform="matrix(1, 0, 0, 1, -133.1224, 475.1287)" opacity="1" clip-path="url(#_export_4_r1bq__shape_WR2fzLTGnQT74HtCc2kD2)"><g transform="scale(1)"><path d="M-2.2441,-2.6614 T-1.4668,-3.3034 0.7932,-4.9073 3.684,-6.3351 7.2298,-6.9855 10.9011,-6.9566 13.6498,-5.8907 15.759,-3.9289 17.2534,-1.2282 19.2657,0.7415 21.8021,-0.2177 22.9264,-1.5551 A3.8559,3.8559 0 0 1 29.4136,2.6151 T28.4654,4.0647 26.5038,6.5605 24.0938,8.1657 20.8619,8.7585 17.2383,8.5123 14.0129,7.1945 11.7053,4.4955 10.3653,1.418 8.3952,0.008 5.3333,0.6802 3.0081,2.0038 2.2441,2.6614 A3.4813,3.4813 0 0 1 -2.2441,-2.6614 Z" stroke-linecap="round" fill="#1d1d1d"/></g></g><g transform="matrix(1, 0, 0, 1, -143.8044, 476.1969)" opacity="1" clip-path="url(#_export_4_r1bq__shape_ttjI3-IGdBc5ZA0PsvqZ2)"><g transform="scale(1)"><path d="M0,3.0354 T-1.2178,3.0386 -5.0576,2.8686 -9.1678,2.6212 -12.203,2.4562 -15.356,2.2203 -18.5689,1.9806 -21.976,1.762 -25.5388,1.5607 -30.4054,1.3419 -36.0182,1.0983 -40.7441,0.9298 -44.8969,0.8678 -49.1432,0.815 -51.4537,0.7577 A2.0077,2.0077 0 0 1 -51.4463,-3.2577 T-49.1355,-3.3063 -44.8866,-3.3433 -40.727,-3.3848 -35.9902,-3.5155 -30.3274,-3.6898 -25.3637,-3.7811 -21.7534,-3.7479 -18.2446,-3.6865 -15.0143,-3.5623 -11.9899,-3.4311 -8.8915,-3.3739 -4.8683,-3.1995 -1.2173,-3.0386 0,-3.0354 A3.0354,3.0354 0 0 1 0,3.0354 Z" stroke-linecap="round" fill="#1d1d1d"/></g></g><g transform="matrix(1, 0, 0, 1, -150.9258, 451.6282)" opacity="1" clip-path="url(#_export_4_r1bq__shape_XqrQm9NqkNlTeIUvgCAx9)"><g transform="scale(1)"><path d="M-3.5346,0.3246 T-3.61,-0.5698 -3.7972,-3.0357 -3.889,-6.1342 -3.6278,-9.397 -2.7417,-12.5478 -0.631,-15.1711 2.3101,-16.9814 5.4852,-18.0153 8.8246,-18.7056 11.9241,-19.155 15.6606,-19.255 17.9372,-19.1638 A3.866,3.866 0 0 1 17.3228,-11.4562 T15.8573,-11.5336 12.9481,-11.4799 9.642,-11.0778 6.3308,-10.7601 4.2324,-9.4216 3.4169,-6.7071 3.304,-3.6976 3.4459,-1.2177 3.5346,-0.3246 A3.5495,3.5495 0 0 1 -3.5346,0.3246 Z" stroke-linecap="round" fill="#1d1d1d"/></g></g><g transform="matrix(1, 0, 0, 1, -228.1932, 477.4431)" opacity="1" clip-path="url(#_export_4_r1bq__shape_68RfHAdIQOdVOHETKxefA)"><g transform="scale(1)"><path d="M-1.8073,1.4218 T-2.2442,0.8834 -2.988,-1.0003 -3.1256,-3.2974 -2.4517,-5.139 -1.1454,-7.0414 0.5678,-8.7687 2.4206,-9.8569 4.7787,-10.38 7.5382,-10.4588 9.8831,-10.0762 12.0116,-8.9271 13.7034,-7.2052 14.6528,-5.4439 15.1416,-3.4535 15.1132,-1.2238 14.4211,1.0281 12.9431,3.1029 10.925,4.6581 8.7428,5.5366 6.4111,5.7208 4.2373,5.4684 2.2086,4.8734 0.3976,3.6784 -0.9732,2.0059 -1.6364,1.1076 A2.5202,2.5202 0 0 1 2.6964,-1.4676 T2.9296,-0.7676 4.0641,0.2415 5.9852,0.6918 7.896,0.5403 9.4698,-0.5851 10.1829,-2.4804 9.5293,-4.5428 7.6768,-5.6124 5.1372,-5.4287 3.0614,-4.484 1.7654,-3.0263 1.4908,-1.841 1.8073,-1.4218 A2.2996,2.2996 0 0 1 -1.8073,1.4218 Z" stroke-linecap="round" fill="#1d1d1d"/></g></g><g transform="matrix(1, 0, 0, 1, -309.0206, 465.512)" opacity="1" clip-path="url(#_export_4_r1bq__shape_IyJSHfXEi2unzWoKGK_wK)"><g transform="scale(1)"><path d="M1.6059,1.2238 T0.9348,2.0603 -0.5559,3.8802 -1.3755,4.8636 A1.8538,1.8538 0 0 1 -4.3245,2.6164 T-3.5937,1.5653 -2.2344,-0.3548 -1.6059,-1.2238 A2.0191,2.0191 0 0 1 1.6059,1.2238 Z" stroke-linecap="round" fill="#1d1d1d"/></g></g><g transform="matrix(1, 0, 0, 1, -298.8726, 469.4287)" opacity="1" clip-path="url(#_export_4_r1bq__shape_aQDSlcerM4xnWLOGNVm5A)"><g transform="scale(1)"><path d="M1.8963,1.0013 T1.5278,1.6903 0.5505,3.5222 -0.678,5.8002 -1.2977,6.9351 A2.1753,2.1753 0 0 1 -5.1023,4.8249 T-4.4863,3.732 -3.2444,1.5117 -2.2574,-0.3086 -1.8963,-1.0013 A2.1444,2.1444 0 0 1 1.8963,1.0013 Z" stroke-linecap="round" fill="#1d1d1d"/></g></g><g transform="matrix(1, 0, 0, 1, -289.7929, 474.7697)" opacity="1" clip-path="url(#_export_4_r1bq__shape_kubzufezb9aQELS65XAGK)"><g transform="scale(1)"><path d="M2.0844,0.4884 T1.9241,1.1796 1.4912,3.0708 1.0345,4.9831 0.8505,5.6954 A2.1677,2.1677 0 0 1 -3.3505,4.6246 T-3.1711,3.9111 -2.7015,2.0451 -2.2479,0.202 -2.0844,-0.4884 A2.1409,2.1409 0 0 1 2.0844,0.4884 Z" stroke-linecap="round" fill="#1d1d1d"/></g></g><g transform="matrix(1, 0, 0, 1, -281.9594, 475.6599)" opacity="1" clip-path="url(#_export_4_r1bq__shape_0G9jTBZVeaI5Ntg1fT5Um)"><g transform="scale(1)"><path d="M2.0162,-0.5663 T2.2715,0.4566 2.9505,2.7222 3.9047,5.4667 4.4353,6.9686 A2.0645,2.0645 0 0 1 0.5447,8.3514 T0,6.8279 -0.9658,3.9416 -1.7015,1.5726 -2.0162,0.5663 A2.0942,2.0942 0 0 1 2.0162,-0.5663 Z" stroke-linecap="round" fill="#1d1d1d"/></g></g><g transform="matrix(1, 0, 0, 1, -376.2513, 468.1825)" opacity="1" clip-path="url(#_export_4_r1bq__shape_6uylZuTpoEQEOpfc4NC8M)"><g transform="scale(1)"><path d="M0.9131,1.8261 T0.0977,2.2245 -2.5663,3.5798 -4.415,4.5367 A1.9237,1.9237 0 0 1 -6.265,1.1633 T-5.2719,0.5764 -3.4039,-0.505 -1.721,-1.4128 -0.9131,-1.8261 A2.0417,2.0417 0 0 1 0.9131,1.8261 Z" stroke-linecap="round" fill="#1d1d1d"/></g></g><g transform="matrix(1, 0, 0, 1, -368.4178, 472.8114)" opacity="1" clip-path="url(#_export_4_r1bq__shape_0bOtxBniLcJsfAReVCcfI)"><g transform="scale(1)"><path d="M2.0093,0.8015 T1.6723,1.6079 0.9364,3.4874 0.1879,5.4688 -0.3996,6.9292 -0.6376,7.4814 A2.2193,2.2193 0 0 1 -4.7024,5.6986 T-4.1022,4.3349 -3.0662,1.9018 -2.3199,0.0155 -2.0093,-0.8015 A2.1632,2.1632 0 0 1 2.0093,0.8015 Z" stroke-linecap="round" fill="#1d1d1d"/></g></g><g transform="matrix(1, 0, 0, 1, -361.2964, 476.3721)" opacity="1" clip-path="url(#_export_4_r1bq__shape_QRZ4f46kmGzs195ePqdqo)"><g transform="scale(1)"><path d="M2.1639,-0.1532 T2.2489,0.7519 2.3776,2.6678 2.4215,3.6788 A2.2424,2.2424 0 0 1 -2.0615,3.8012 T-2.0709,2.8627 -2.1221,1.0387 -2.1639,0.1532 A2.1693,2.1693 0 0 1 2.1639,-0.1532 Z" stroke-linecap="round" fill="#1d1d1d"/></g></g><g transform="matrix(1, 0, 0, 1, -368.7738, 439.8751)" opacity="1" clip-path="url(#_export_4_r1bq__shape_CUn6fPCLvNpgYsJ8e4KEm)"><g transform="scale(1)"><path d="M-0.2102,-1.8363 T0.8465,-1.9475 3.4661,-2.1962 6.3235,-2.3069 9.0494,-2.2238 11.908,-2.122 14.8003,-2.0327 17.591,-1.9822 20.1645,-1.9826 22.456,-2.0208 24.7445,-2.0506 25.9893,-2.0494 A1.5194,1.5194 0 0 1 25.9907,0.9894 T24.7459,0.9918 22.4579,0.9642 20.1675,0.9289 17.596,0.9338 14.8098,0.9939 11.9267,1.101 9.0893,1.2355 6.4243,1.3786 3.7474,1.5098 1.2647,1.7059 0.2102,1.8363 A1.8483,1.8483 0 0 1 -0.2102,-1.8363 Z" stroke-linecap="round" fill="#1d1d1d"/></g></g><g transform="matrix(1, 0, 0, 1, -414.1725, 481.7131)" opacity="1" clip-path="url(#_export_4_r1bq__shape_3cLQRw2JEZdc0qMmad8cq)"><g transform="scale(1)"><path d="M0.3298,2.9779 T-1.1338,3.1206 -5.3361,3.4075 -10.9634,3.4275 -15.6382,3.1924 -19.0895,2.9904 -22.3543,2.8479 -25.9576,2.6985 -29.7448,2.5696 -33.2198,2.4931 -36.4921,2.4322 -39.9573,2.2948 -44.1268,1.8961 -48.3705,1.3876 -52.1677,0.9184 -56.6502,0.1478 -61.0252,-0.6853 -64.493,-1.3484 -67.8169,-2.0963 -71.0293,-3.031 -74.1988,-4.2594 -77.5103,-5.7551 -80.6808,-7.82 -82.4791,-10.6568 -82.9271,-13.7767 -82.5702,-17.2306 -81.4654,-20.7168 -79.8295,-23.7904 -77.4589,-26.865 -74.9342,-29.4469 -72.7078,-31.3332 -70.2504,-33.1053 -67.166,-34.8561 -63.6483,-36.1284 -60.0183,-36.7217 -56.5238,-36.6082 -53.594,-35.3651 -51.1549,-33.1478 -49.4454,-30.4381 -48.6983,-27.4673 -48.8047,-24.3802 -49.889,-21.2619 -51.9555,-18.4516 -54.8249,-16.5474 -58.5722,-15.8705 -60.7094,-15.8351 A3.9249,3.9249 0 0 1 -60.7106,-23.6849 T-58.7568,-23.6404 -56.361,-25.0509 -56.9046,-28.0534 -59.6496,-29.4349 -63.1222,-28.7422 -66.2548,-27.355 -68.9481,-25.5472 -71.2446,-23.6385 -73.2375,-21.4757 -75.0853,-18.678 -76.3972,-15.613 -76.745,-12.6598 -75.1865,-10.2583 -72.3821,-8.6943 -69.6262,-7.5033 -66.7241,-6.522 -63.5859,-5.6842 -60.2463,-4.9244 -55.9887,-4.1898 -51.6185,-3.5706 -47.9438,-3.128 -43.8255,-2.8573 -39.7906,-2.7204 -36.3806,-2.6194 -33.1337,-2.5354 -29.7046,-2.4965 -25.8717,-2.5641 -22.1818,-2.6009 -18.905,-2.5362 -15.4028,-2.5084 -10.9059,-2.442 -5.7667,-2.488 -1.7891,-2.7968 -0.3298,-2.9779 A2.9961,2.9961 0 0 1 0.3298,2.9779 Z" stroke-linecap="round" fill="#1d1d1d"/></g></g><g transform="matrix(1, 0, 0, 1, 80.4014, 441.9581)" opacity="1" clip-path="url(#_export_4_r1bq__shape_gKnismqo2YNWcF2FsTqDl)"><g transform="scale(1)"><path d="M-1.8775,0.8739 T-2.263,0.0103 -3.3834,-2.58 -4.1183,-4.3066 A1.9971,1.9971 0 0 1 -0.4617,-5.9134 T0.2954,-4.2446 1.465,-1.7248 1.8775,-0.8739 A2.0709,2.0709 0 0 1 -1.8775,0.8739 Z" stroke-linecap="round" fill="#1d1d1d"/></g></g><g transform="matrix(1, 0, 0, 1, 87.9309, 439.5379)" opacity="1" clip-path="url(#_export_4_r1bq__shape_vb9H-HyB1PyPyqK27irrW)"><g transform="scale(1)"><path d="M-2.1515,0.3556 T-2.2501,-0.1949 -2.4422,-2.5626 -2.5357,-4.3797 A2.2671,2.2671 0 0 1 1.9957,-4.2203 T1.9898,-2.8409 2.0677,-0.9086 2.1515,-0.3556 A2.1807,2.1807 0 0 1 -2.1515,0.3556 Z" stroke-linecap="round" fill="#1d1d1d"/></g></g><g transform="matrix(1, 0, 0, 1, 97.6117, 439.8068)" opacity="1" clip-path="url(#_export_4_r1bq__shape_2aluanDdg11dcvTOl_QeX)"><g transform="scale(1)"><path d="M-2.1343,-0.4086 T-1.9729,-1.2049 -1.6224,-3.0851 -1.2177,-5.4948 -1.002,-6.8207 A2.2428,2.2428 0 0 1 3.422,-6.0793 T3.1477,-4.7282 2.6479,-2.284 2.2784,-0.3911 2.1343,0.4086 A2.1731,2.1731 0 0 1 -2.1343,-0.4086 Z" stroke-linecap="round" fill="#1d1d1d"/></g></g><g transform="matrix(1, 0, 0, 1, 105.5446, 439.4034)" opacity="1" clip-path="url(#_export_4_r1bq__shape_v6WcomwlM-LhDIu4J4fU0)"><g transform="scale(1)"><path d="M-2.0937,-0.4739 T-1.9433,-1.1494 -1.4244,-3.0369 -0.814,-4.9152 -0.5722,-5.5813 A2.182,2.182 0 0 1 3.5322,-4.0987 T3.2925,-3.4318 2.7283,-1.8198 2.2488,-0.2004 2.0937,0.4739 A2.1466,2.1466 0 0 1 -2.0937,-0.4739 Z" stroke-linecap="round" fill="#1d1d1d"/></g></g><g transform="matrix(1, 0, 0, 1, 113.4775, 440.748)" opacity="1" clip-path="url(#_export_4_r1bq__shape_lUmr-j7g_yx_IhFrKHrAC)"><g transform="scale(1)"><path d="M-2.1701,-0.3127 T-2.0572,-1.2235 -1.6193,-3.8696 -1.2943,-5.6049 A2.2885,2.2885 0 0 1 3.1743,-4.6151 T2.8087,-2.9713 2.3066,-0.5074 2.1701,0.3127 A2.1925,2.1925 0 0 1 -2.1701,-0.3127 Z" stroke-linecap="round" fill="#1d1d1d"/></g></g><g transform="matrix(1, 0, 0, 1, 45.2296, 434.5877)" opacity="1" clip-path="url(#_export_4_r1bq__shape_q5DhlbWc8CM2EtWT8-7sn)"><g transform="scale(1)"><path d="M1.7661,-1.6371 T2.4021,-0.9506 3.352,0.6584 3.7112,2.5479 3.6867,4.4541 3.308,6.3677 2.0808,8.2242 1.1626,9.1063 A2.5712,2.5712 0 0 1 -1.9759,5.0328 T-1.6757,4.7023 -1.1656,3.4414 -1.3608,2.074 -1.7661,1.6371 A2.4081,2.4081 0 0 1 1.7661,-1.6371 ZM-0.0671,9.6182 T-0.9853,9.7398 -3.2474,9.7755 -4.5913,9.6896 A2.602,2.602 0 0 1 -4.2685,4.4955 T-3.0903,4.5866 -1.3291,4.5993 -0.7462,4.5209 A2.5712,2.5712 0 0 1 -0.0671,9.6182 ZM-5.7426,9.3391 T-6.3947,8.9683 -7.9213,8.0138 -9.52,6.8453 -11.0759,5.5819 -13.1442,4.7783 -14.3808,4.6534 A2.6534,2.6534 0 0 1 -14.3392,-0.6534 T-12.8318,-0.4563 -10.3574,0.0835 -8.595,1.0832 -6.9662,2.3601 -5.3002,3.5082 -3.7923,4.4412 -3.1171,4.8459 A2.602,2.602 0 0 1 -5.7426,9.3391 Z" stroke-linecap="round" fill="#1d1d1d"/></g></g><g transform="matrix(1, 0, 0, 1, -0.4442, 436.2925)" opacity="1" clip-path="url(#_export_4_r1bq__shape_ptCOTSgzT3bpBxvaiO4BW)"><g transform="scale(1)"><path d="M-0.2755,-1.8937 T0.8407,-2.0313 3.0687,-2.2694 5.2184,-2.4796 7.5635,-2.6561 10.1097,-2.7797 12.4849,-2.8958 14.7951,-3.0197 17.6549,-3.2654 20.2788,-3.5442 21.2165,-3.6418 A1.7892,1.7892 0 0 1 21.5435,-0.0782 T19.7926,0.0425 17.1114,0.2033 14.9951,0.3293 12.6867,0.4816 10.3608,0.647 7.9114,0.89 5.6086,1.161 3.5226,1.4047 1.3846,1.7075 0.2755,1.8937 A1.9136,1.9136 0 0 1 -0.2755,-1.8937 Z" stroke-linecap="round" fill="#1d1d1d"/></g></g><g transform="matrix(1, 0, 0, 1, -59.0193, 440.4488)" opacity="1" clip-path="url(#_export_4_r1bq__shape_n0Bqn6ryC49YlGgufvQPx)"><g transform="scale(1)"><path d="M-1.4382,-1.5893 T-0.7822,-2.1659 1.0474,-3.6946 3.4603,-5.4036 6.028,-6.7771 8.8942,-7.8407 11.9977,-8.5066 14.3465,-8.8007 15.1298,-8.8759 A2.1472,2.1472 0 0 1 15.5702,-4.6041 T14.788,-4.5179 12.7438,-4.2668 10.2655,-3.7591 7.9263,-2.9151 5.7628,-1.8037 3.7192,-0.3974 2.0772,0.994 1.4382,1.5893 A2.1435,2.1435 0 0 1 -1.4382,-1.5893 Z" stroke-linecap="round" fill="#1d1d1d"/></g></g><g transform="matrix(1, 0, 0, 1, -187.9085, 480.1889)" opacity="1" clip-path="url(#_export_4_r1bq__shape_TXUbzMRIl3qlQBUT8pQzP)"><g transform="scale(1)"><path d="M-0.0691,-1.9719 T1.1042,-1.9751 3.271,-1.9966 5.2931,-2.0011 7.4057,-1.9486 9.6217,-1.8378 11.8371,-1.7056 13.8585,-1.609 16.5275,-1.4516 18.2584,-1.3306 A1.8674,1.8674 0 0 1 17.9416,2.3906 T16.2807,2.2229 13.687,2.0003 11.6645,1.9052 9.4889,1.8275 7.3466,1.7788 5.3203,1.7644 3.3803,1.7878 1.2396,1.893 0.0691,1.9719 A1.9731,1.9731 0 0 1 -0.0691,-1.9719 Z" stroke-linecap="round" fill="#1d1d1d"/></g></g><g transform="matrix(1, 0, 0, 1, -512.2257, 460.7596)" opacity="1" clip-path="url(#_export_4_r1bq__shape_tq815frWcMWLbLiQVenQ2)"><g transform="scale(1)"><path d="M0.408,2.659 T-0.9114,2.8824 -4.7808,3.1989 -9.7827,3.3122 -14.9448,3.3228 -20.6014,3.2934 -28.5278,3.1497 -40.0877,2.7476 -51.8616,2.2628 -63.5543,1.7343 -76.3636,1.2353 -87.5018,0.8588 -96.7155,0.55 -105.7246,0.3801 -114.0339,0.2856 -120.5594,0.3328 -125.7994,0.559 -129.9614,0.9064 -133.8421,1.2678 -135.9619,1.427 A1.8821,1.8821 0 0 1 -136.2381,-2.327 T-134.1178,-2.4797 -130.2043,-2.6916 -125.9552,-2.9018 -120.5955,-3.139 -113.9982,-3.1975 -105.662,-3.1175 -96.6042,-2.9668 -87.385,-2.6861 -76.2318,-2.3478 -63.4039,-1.9017 -51.7251,-1.4473 -39.9838,-1.0641 -28.5186,-0.8012 -20.6748,-0.8456 -15.1042,-1.0697 -10.1061,-1.4168 -5.4086,-1.9612 -1.7334,-2.4765 -0.408,-2.659 A2.6901,2.6901 0 0 1 0.408,2.659 Z" stroke-linecap="round" fill="#1d1d1d"/></g></g><g transform="matrix(1, 0, 0, 1, -626.9094, 445.8106)" opacity="1" clip-path="url(#_export_4_r1bq__shape_7JiMRp7eAb1CXHMw8WH88)"><g transform="scale(1)"><path d="M2.7565,0.1917 T2.6541,1.6669 2.4672,4.809 2.2255,9.668 1.9559,15.1692 1.8628,19.1426 1.9514,22.4351 2.0457,26.054 2.0708,28.0447 A2.2917,2.2917 0 0 1 -2.5108,28.1753 T-2.5992,26.1864 -2.7135,22.4898 -2.702,19.1141 -2.7441,15.13 -2.9199,9.5574 -2.9892,4.5297 -2.8593,1.2835 -2.7565,-0.1917 A2.7632,2.7632 0 0 1 2.7565,0.1917 Z" stroke-linecap="round" fill="#1d1d1d"/></g></g><g transform="matrix(1, 0, 0, 1, -607.7211, 447.3724)" opacity="1" clip-path="url(#_export_4_r1bq__shape_bbcw7NfARGlA2chdS7A-d)"><g transform="scale(1)"><path d="M2.8489,0.1853 T2.7257,1.7617 2.3912,7.0449 2.1192,12.6778 2.0739,16.1096 2.0605,19.415 2.0317,21.2148 A2.4817,2.4817 0 0 1 -2.9317,21.1852 T-2.9391,19.3852 -2.9131,16.0735 -2.9074,12.6259 -2.974,6.8315 -2.9309,1.3938 -2.8489,-0.1853 A2.8549,2.8549 0 0 1 2.8489,0.1853 Z" stroke-linecap="round" fill="#1d1d1d"/></g></g><g transform="matrix(1, 0, 0, 1, -589.4253, 447.3724)" opacity="1" clip-path="url(#_export_4_r1bq__shape_xX_EHqz1YVwU8jsMPsRGU)"><g transform="scale(1)"><path d="M3.1694,0 T3.1854,0.8641 3.1838,4.1647 3.1547,8.9948 3.1453,13.6726 3.165,17.9997 3.1818,21.1764 3.1811,22.31 A3.1811,3.1811 0 0 1 -3.1811,22.31 T-3.1818,21.1764 -3.165,17.9997 -3.1453,13.6726 -3.1547,8.9948 -3.1838,4.1647 -3.1854,0.8641 -3.1694,0 A3.1694,3.1694 0 0 1 3.1694,0 Z" stroke-linecap="round" fill="#1d1d1d"/></g></g><g transform="matrix(1, 0, 0, 1, -545.5824, 449.8038)" opacity="1" clip-path="url(#_export_4_r1bq__shape_Pd3xejZWKWaaJmlDWjH3A)"><g transform="scale(1)"><path d="M0.2393,-2.7498 T1.6287,-2.6384 4.8627,-2.2284 9.471,-1.5572 14.9247,-0.83 19.6492,-0.3032 23.7381,-0.0269 27.2838,0.0594 30.3604,0.0267 33.854,0.0516 35.7625,0.0915 A2.2887,2.2887 0 0 1 35.6975,4.6685 T33.7887,4.6542 30.2652,4.5795 27.1436,4.4179 23.5119,4.2672 19.2854,4.1078 14.4915,3.8338 8.8859,3.5331 4.2541,3.2035 1.1483,2.88 -0.2393,2.7498 A2.7602,2.7602 0 0 1 0.2393,-2.7498 Z" stroke-linecap="round" fill="#1d1d1d"/></g></g><g transform="matrix(1, 0, 0, 1, -523.3483, 469.6557)" opacity="1" clip-path="url(#_export_4_r1bq__shape_Jb1zeGh427mYdjE7AJ9-l)"><g transform="scale(1)"><path d="M0.9648,3.4419 T-0.0693,3.7435 -2.1935,4.9811 -3.3103,7.4858 -2.2197,10.1766 0.4673,12.1696 3.4962,13.2958 6.6393,13.5999 9.7887,13.4393 12.6148,12.7421 15.0773,11.3824 16.8699,8.7925 17.5607,7.075 A3.7931,3.7931 0 0 1 24.7993,9.345 T24.379,10.6657 23.0332,13.5052 20.9382,16.1884 18.5764,18.1431 15.2514,19.7327 10.6825,20.8954 6.3317,21.2252 2.8146,21.0198 -0.7612,20.1151 -4.3786,18.3237 -7.1844,16.2868 -9.2708,13.7948 -10.5776,10.6553 -10.9006,7.5882 -10.4634,4.5639 -9.1427,1.2541 -7.0443,-1.2784 -4.3768,-2.5086 -1.915,-3.1873 -0.9648,-3.4419 A3.5745,3.5745 0 0 1 0.9648,3.4419 Z" stroke-linecap="round" fill="#1d1d1d"/></g></g><g transform="matrix(1, 0, 0, 1, -510.6431, 438.9514)" opacity="1" clip-path="url(#_export_4_r1bq__shape_PvwbOYznuX-qHh_83S1aG)"><g transform="scale(1)"><path d="M0.304,-3.3381 T1.6281,-3.1859 5.1679,-2.794 8.9694,-2.4525 11.9285,-2.0848 14.5842,-0.9989 16.9471,1.0315 18.682,3.0255 19.3364,3.8092 A3.5013,3.5013 0 0 1 14.0236,8.3708 T13.3479,7.6054 11.0257,5.5559 7.9541,4.0994 4.4423,3.722 1.0258,3.4276 -0.304,3.3381 A3.3519,3.3519 0 0 1 0.304,-3.3381 Z" stroke-linecap="round" fill="#1d1d1d"/></g></g><g transform="matrix(1, 0, 0, 1, -565.8053, 471.6818)" opacity="1" clip-path="url(#_export_4_r1bq__shape_1m7pxyFJpYm1xroa1xl5d)"><g transform="scale(1)"><path d="M0.0898,-2.791 T2.2113,-2.6131 7.1572,-2.2522 11.9621,-2 16.611,-1.9937 20.8227,-2.0531 22.3659,-2.0496 A2.5298,2.5298 0 0 1 22.2941,3.0096 T20.7515,2.9693 16.5309,2.7872 11.8582,2.637 7.0153,2.6687 2.0386,2.7499 -0.0898,2.791 A2.7925,2.7925 0 0 1 0.0898,-2.791 Z" stroke-linecap="round" fill="#1d1d1d"/></g></g><g transform="matrix(1, 0, 0, 1, -573.1461, 444.2538)" opacity="1" clip-path="url(#_export_4_r1bq__shape_IGIG1sZuJNcK5daz_Se_R)"><g transform="scale(1)"><path d="M-2.1588,-0.5247 T-1.998,-1.1812 -1.4473,-2.8953 -0.0408,-4.9934 2.2364,-6.566 4.8706,-7.2701 7.4663,-7.4166 9.6617,-7.2681 11.641,-6.9228 13.5667,-6.3349 15.3281,-5.4519 16.7642,-4.0873 17.6083,-2.2228 17.9547,-0.2771 17.9236,1.7704 17.4495,3.8764 16.3954,5.8903 14.7387,7.7231 12.4797,9.086 10.2389,9.8201 8.2978,10.0398 6.1974,9.9809 3.643,9.3763 1.2062,8.2518 -0.5116,6.8866 -1.8522,5.253 -2.6472,3.3976 -2.8135,1.4622 -2.4769,-0.5616 -2.1737,-1.6158 A2.5368,2.5368 0 0 1 2.6937,-0.1842 T2.3777,0.9453 2.6496,2.8608 4.0532,4.1592 5.996,4.8817 8.1263,5.0328 10.0611,4.6631 11.6753,3.7042 12.7423,1.9702 13.1315,-0.1978 12.274,-1.731 10.3956,-2.411 8.4137,-2.7482 6.5157,-2.8187 4.662,-2.5974 3.1081,-1.6014 2.3172,-0.1321 2.1588,0.5247 A2.2216,2.2216 0 0 1 -2.1588,-0.5247 Z" stroke-linecap="round" fill="#1d1d1d"/></g></g><g transform="matrix(1, 0, 0, 1, -672.5004, 452.5761)" opacity="1" clip-path="url(#_export_4_r1bq__shape_xOoPdSDqN-DBvsHlE_2un)"><g transform="scale(1)"><path d="M0.1975,-2.3222 T1.3166,-2.2265 3.8371,-1.9233 6.3719,-1.3725 8.3533,-0.4158 9.7649,0.996 10.8293,2.8206 11.5154,4.9216 11.694,7.0044 11.488,9.0196 10.9214,10.9594 9.9247,12.885 8.4742,14.8059 6.8942,16.3546 5.329,17.4429 3.5772,18.1658 1.624,18.3878 -0.3335,18.1211 -2.1469,17.5021 -3.8206,16.638 -5.4307,15.448 -6.8308,13.9263 -7.9756,12.1248 -8.7976,10.107 -9.1626,8.0667 -9.1797,5.9843 -8.8632,3.8163 -8.1507,1.7782 -7.0422,0.1438 -5.5819,-1.1141 -3.8083,-2.0929 -1.8537,-2.6995 0.6721,-2.8624 2.1988,-2.8349 A2.6739,2.6739 0 0 1 1.3701,2.4483 T0.8383,2.3843 -0.7214,2.51 -2.5727,3.3154 -3.6457,4.843 -3.9087,6.8468 -3.6593,8.8555 -2.7894,10.6261 -1.2188,12.0959 0.6509,12.9959 2.585,12.8904 4.3019,11.8111 5.5578,10.295 6.4078,8.5666 6.6932,6.6301 6.2876,4.7419 5.0773,3.3917 3.1358,2.7017 0.8996,2.415 -0.1975,2.3222 A2.3306,2.3306 0 0 1 0.1975,-2.3222 ZM2.6827,-2.7118 T3.5702,-2.3944 4.4577,-2.077 A2.6723,2.6723 0 0 1 2.6623,2.957 T1.7742,2.6411 0.8862,2.3252 A2.6739,2.6739 0 0 1 2.6827,-2.7118 Z" stroke-linecap="round" fill="#1d1d1d"/></g></g><g transform="matrix(1, 0, 0, 1, -22.4127, 435.2395)" opacity="1" clip-path="url(#_export_4_r1bq__shape_m34UouKpPBX1ivEtb1Z4W)"><g transform="scale(1)"><path d="M-0.5087,-2.1792 T0.2164,-2.3411 2.5264,-2.6478 5.3933,-2.7342 8.0498,-2.3726 10.5526,-1.2595 12.3133,0.6454 13.3828,2.7884 13.9349,4.7638 13.8678,6.7729 13.253,8.8346 12.1415,10.5728 10.469,11.8537 8.4375,12.5925 6.3694,12.8908 3.9362,12.8615 1.6267,12.4734 -0.2096,11.75 -2.0154,10.2766 -3.3169,8.2466 -3.8899,6.0807 -3.7101,3.6262 -2.5152,1.084 -0.9001,-0.7267 0.5633,-1.7861 1.2785,-2.285 A2.4029,2.4029 0 0 1 4.1815,1.545 T2.8399,2.7161 1.3259,4.9283 1.7146,6.7265 3.3996,7.7409 5.5081,7.9513 7.5253,7.6167 8.907,6.3111 8.8684,4.3042 7.6862,2.6098 5.6162,1.7641 3.145,1.726 1.2291,2.0037 0.5087,2.1792 A2.2378,2.2378 0 0 1 -0.5087,-2.1792 Z" stroke-linecap="round" fill="#1d1d1d"/></g></g><g transform="matrix(1, 0, 0, 1, 4.6772, 467.2689)" opacity="1" clip-path="url(#_export_4_r1bq__shape_PN0KAQU_hF38zXi6rL00c)"><g transform="scale(1)"><path d="M-2.2819,0.3414 T-2.3679,-0.238 -2.511,-2.0148 -2.4143,-4.2219 -1.8836,-6.2706 -0.8295,-8.2671 0.7003,-9.8838 2.5488,-10.9244 4.7394,-11.5264 7.1512,-11.7762 9.4337,-11.5117 11.1704,-10.5252 12.4595,-8.7754 13.2948,-6.6523 13.5418,-4.6116 13.581,-2.6105 14.5566,-1.7888 16.1568,-2.7116 17.5613,-4.3211 19.1581,-5.9262 20.8779,-7.1114 22.7333,-7.6997 24.657,-7.669 26.5978,-7.0995 28.3965,-6.234 30.0175,-5.125 31.4373,-3.6607 32.6616,-1.9223 33.2678,-0.9824 A2.65,2.65 0 0 1 29.2922,2.5224 T28.3912,1.1959 26.8065,-0.7827 25.1296,-1.9571 23.2465,-2.1067 21.5877,-0.8296 20.0791,0.8917 18.5297,2.276 16.7719,3.3072 14.8155,3.968 12.804,3.8566 11.0287,2.9987 9.5988,1.65 8.6623,-0.1189 8.3934,-2.0858 8.422,-4.0294 8.4899,-5.9053 7.528,-6.8411 5.5502,-6.6803 3.7792,-6.0372 2.5603,-4.6258 2.1264,-2.5947 2.1947,-0.9203 2.2819,-0.3414 A2.3073,2.3073 0 0 1 -2.2819,0.3414 Z" stroke-linecap="round" fill="#1d1d1d"/></g></g><g transform="matrix(1, 0, 0, 1, -188.941, 443.8898)" opacity="1" clip-path="url(#_export_4_r1bq__shape_cMf520n1peeBA3S_a8ZT7)"><g transform="scale(1)"><path d="M-2.2842,-2.3464 T-1.4156,-3.1743 1.1235,-5.3352 4.929,-7.8193 8.712,-9.7237 12.2243,-11.0269 15.9255,-11.882 19.7717,-12.1599 21.7808,-12.1324 A3.4777,3.4777 0 0 1 21.3992,-5.1876 T19.0587,-5.2236 14.8272,-4.8248 11.4978,-3.7826 8.3276,-2.2521 5.2905,-0.3369 3.1348,1.5008 2.2842,2.3464 A3.2746,3.2746 0 0 1 -2.2842,-2.3464 Z" stroke-linecap="round" fill="#1d1d1d"/></g></g><g transform="matrix(1, 0, 0, 1, -343.2932, 474.8691)" opacity="1" clip-path="url(#_export_4_r1bq__shape_hZrmPrJS7nsDuXFrM9Hds)"><g transform="scale(1)"><path d="M-0.1446,-1.8724 T1.0388,-1.9332 3.3917,-2.0532 5.6074,-2.1585 7.7134,-2.2283 10.3225,-2.1824 13.4334,-2.2178 16.5385,-2.476 18.0819,-2.6295 A1.834,1.834 0 0 1 18.3381,1.0295 T16.7434,1.0957 13.5237,1.138 10.3759,1.2088 7.8283,1.3271 5.8033,1.3905 3.6526,1.5298 1.3233,1.7508 0.1446,1.8724 A1.8779,1.8779 0 0 1 -0.1446,-1.8724 Z" stroke-linecap="round" fill="#1d1d1d"/></g></g><g transform="matrix(1, 0, 0, 1, -346.6169, 482.713)" opacity="1" clip-path="url(#_export_4_r1bq__shape_67nSE9c7kY2Cb5ga6xElp)"><g transform="scale(1)"><path d="M-0.3206,-2.9294 T1.3507,-3.0694 4.5706,-3.3283 7.7909,-3.4981 10.9708,-3.5852 14.0649,-3.656 17.2349,-3.7095 21.2624,-3.8552 25.1306,-4.0656 26.5556,-4.1493 A2.8241,2.8241 0 0 1 26.8844,1.4893 T25.4595,1.5719 21.4747,1.6968 17.3698,1.7751 14.2234,1.8772 11.1635,1.9835 8.1525,2.1128 5.1224,2.341 1.9826,2.7046 0.3206,2.9294 A2.9469,2.9469 0 0 1 -0.3206,-2.9294 Z" stroke-linecap="round" fill="#1d1d1d"/></g></g><g transform="matrix(1, 0, 0, 1, -451.6285, 473.9471)" opacity="1" clip-path="url(#_export_4_r1bq__shape_aT2F5u5H_GEPS4hWKGVxZ)"><g transform="scale(1)"><path d="M1.9464,-0.1453 T1.9747,1.2351 2.055,3.6934 2.1674,5.8206 2.252,8.0213 2.3496,10.7615 2.4589,13.5341 2.4178,15.5635 2.3406,16.4095 A2.0597,2.0597 0 0 1 -1.7406,15.8505 T-1.5065,14.1285 -1.2582,10.8444 -1.2898,8.1851 -1.4046,6.0239 -1.533,3.922 -1.7695,1.5145 -1.9464,0.1453 A1.9518,1.9518 0 0 1 1.9464,-0.1453 Z" stroke-linecap="round" fill="#1d1d1d"/></g></g><g transform="matrix(1, 0, 0, 1, -439.1147, 474.701)" opacity="1" clip-path="url(#_export_4_r1bq__shape_k0ZrjtaaHnsvsjGqmPMmH)"><g transform="scale(1)"><path d="M2.2116,-0.1998 T2.2725,0.5578 2.471,2.7289 2.7065,5.4961 2.8984,7.9059 3.0574,9.8985 3.236,11.7923 3.3746,13.6654 3.3994,14.5813 A2.3397,2.3397 0 0 1 -1.2794,14.6587 T-1.3378,13.1465 -1.4153,10.5179 -1.5026,8.3134 -1.664,5.8916 -1.9085,3.1352 -2.1357,0.9561 -2.2116,0.1998 A2.2206,2.2206 0 0 1 2.2116,-0.1998 Z" stroke-linecap="round" fill="#1d1d1d"/></g></g><g transform="matrix(1, 0, 0, 1, -426.2993, 474.2487)" opacity="1" clip-path="url(#_export_4_r1bq__shape_bA4y5w6LnvQrkPTIRU6Ml)"><g transform="scale(1)"><path d="M1.9718,-0.212 T2.0512,1.0664 2.2265,3.4223 2.3879,5.724 2.5062,8.0048 2.6513,10.5088 2.75,13.1016 2.6967,15.4221 2.6372,16.5972 A2.044,2.044 0 0 1 -1.4372,16.2628 T-1.313,15.1987 -1.102,13.088 -1.0082,10.639 -1.0498,8.2304 -1.2197,6.0478 -1.4621,3.8078 -1.7776,1.4781 -1.9718,0.212 A1.9832,1.9832 0 0 1 1.9718,-0.212 Z" stroke-linecap="round" fill="#1d1d1d"/></g></g><g transform="matrix(1, 0, 0, 1, 150.0986, 432.6679)" opacity="1" clip-path="url(#_export_4_r1bq__shape_tt7yI89u54weWOAvca73F)"><g transform="scale(1)"><path d="M2.7266,-0.1043 T2.7564,1.6847 2.803,5.2232 2.928,9.9141 3.0752,15.4885 3.1854,21.0498 3.3511,26.5236 3.489,31.4438 3.5783,35.9324 3.7274,39.5375 3.9944,43.5481 4.2811,47.4885 4.4566,49.7709 4.5091,50.6325 A2.6991,2.6991 0 0 1 -0.8891,50.6475 T-0.8414,49.7856 -0.682,47.5096 -0.4452,43.5939 -0.2625,39.6078 -0.2434,36.0335 -0.3931,31.6167 -0.6945,26.7299 -1.085,21.2509 -1.4942,15.7732 -2.0501,10.1502 -2.455,5.381 -2.6196,1.8904 -2.7266,0.1043 A2.7286,2.7286 0 0 1 2.7266,-0.1043 Z" stroke-linecap="round" fill="#1d1d1d"/></g></g><g transform="matrix(1, 0, 0, 1, 161.2516, 431.1607)" opacity="1" clip-path="url(#_export_4_r1bq__shape_-Z0StVrks4s3s_gZ__GDB)"><g transform="scale(1)"><path d="M2.7042,0 T2.5764,2.2686 2.3523,8.1083 2.1844,14.7211 2.0599,20.5164 1.9684,25.9376 1.9013,31.2237 1.8793,35.953 1.9449,40.2156 2.1175,43.9724 2.5807,48.0136 3.1223,51.7736 3.3141,53.0973 A2.4272,2.4272 0 0 1 -1.5141,53.6027 T-1.6456,51.1006 -1.7928,47.135 -1.7695,44.078 -1.8081,40.2742 -1.8793,35.953 -1.9013,31.2237 -1.9684,25.9376 -2.0599,20.5164 -2.1844,14.7211 -2.3523,8.1083 -2.5764,2.2686 -2.7042,0 A2.7042,2.7042 0 0 1 2.7042,0 Z" stroke-linecap="round" fill="#1d1d1d"/></g></g></svg>