<?xml version="1.0" encoding="UTF-8" standalone="no"?>
<!-- Created with Inkscape (http://www.inkscape.org/) -->

<svg
   width="210.31303mm"
   height="258.47971mm"
   viewBox="0 0 210.31303 258.47971"
   version="1.1"
   id="svg5"
   inkscape:version="1.2 (dc2aeda, 2022-05-15)"
   sodipodi:docname="rainbow.svg"
   inkscape:dataloss="true"
   xmlns:inkscape="http://www.inkscape.org/namespaces/inkscape"
   xmlns:sodipodi="http://sodipodi.sourceforge.net/DTD/sodipodi-0.dtd"
   xmlns="http://www.w3.org/2000/svg"
   xmlns:svg="http://www.w3.org/2000/svg">
  <sodipodi:namedview
     id="namedview7"
     pagecolor="#ffffff"
     bordercolor="#000000"
     borderopacity="0.25"
     inkscape:showpageshadow="2"
     inkscape:pageopacity="0.0"
     inkscape:pagecheckerboard="0"
     inkscape:deskcolor="#d1d1d1"
     inkscape:document-units="mm"
     showgrid="false"
     inkscape:zoom="1.1269987"
     inkscape:cx="287.04559"
     inkscape:cy="661.49146"
     inkscape:window-width="1800"
     inkscape:window-height="1147"
     inkscape:window-x="120"
     inkscape:window-y="25"
     inkscape:window-maximized="0"
     inkscape:current-layer="layer1" />
  <defs
     id="defs2" />
  <g
     inkscape:label="Layer 1"
     inkscape:groupmode="layer"
     id="layer1"
     transform="translate(0.31302411,-25.354955)">
    <path
       style="opacity:1;fill:#58ff01;fill-opacity:1;stroke-width:0.42395;stop-color:#000000"
       d="M 0,218.67946 C 77.411063,145.19096 168.06886,152.14315 210,114.0036 V 73.597627 C 143.08659,131.98012 42.428167,173.19698 0,194.25975 Z m 0,0 C 77.411064,145.19096 168.06886,152.14315 210,114.0036 V 73.597626 C 148.80688,130.07628 42.712496,173.10235 0,194.25975 Z"
       id="path233"
       sodipodi:nodetypes="cccccccccc"
       inkscape:export-filename="../path233.png"
       inkscape:export-xdpi="85.521889"
       inkscape:export-ydpi="85.521889" />
    <path
       style="opacity:1;fill:#f4ff01;fill-opacity:1;stroke-width:0.42395;stop-color:#000000"
       d="M 210,73.597626 C 158.938,122.07941 21.598664,186.38417 0,194.25975 -0.70430426,176.07607 0,172.31978 0,172.31978 65.6653,169.39842 138.3388,109.7106 210,58.222488 Z"
       id="path1188"
       sodipodi:nodetypes="ccccc" />
    <path
       style="opacity:1;fill:#ff9d01;fill-opacity:1;stroke-width:0.42395;stop-color:#000000"
       d="M 0,172.31978 C 80.434027,167.3572 154.38534,98.656601 210,58.222488 V 39.20627 C 138.84159,115.59725 25.151034,168.63895 -0.31302412,156.12078 Z"
       id="path1190"
       sodipodi:nodetypes="ccccc" />
    <path
       style="opacity:1;fill:#ff0101;fill-opacity:1;stroke-width:0.42395;stop-color:#000000"
       d="M -0.31302412,156.12078 C 32.597956,180.16448 157.2914,96.568175 210,39.20627 V 25.354954 C 179.50612,57.953293 67.232904,168.82341 -0.31302412,144.61714"
       id="path1246"
       sodipodi:nodetypes="cccc" />
    <path
       style="opacity:1;fill:#01e8ff;fill-opacity:1;stroke-width:0.42395;stop-color:#000000"
       d="m 0,218.67946 v 15.6191 C 50.281206,179.7074 123.46671,151.89451 210,139.68702 V 114.0036 C 137.32192,146.62794 50.750891,167.48867 0,218.67946 Z"
       id="path1302"
       sodipodi:nodetypes="ccccc" />
    <path
       style="opacity:1;fill:#014cff;fill-opacity:1;stroke-width:0.42395;stop-color:#000000"
       d="m 0,234.29856 v 17.37283 c 39.129003,-64.96022 112.69397,-91.4114 210,-91.31344 V 139.68702 C 137.79555,150.20236 37.327069,176.11755 0,234.29856 v 0"
       id="path1358"
       sodipodi:nodetypes="cccccc" />
    <path
       style="opacity:1;fill:#d501ff;fill-opacity:1;stroke-width:0.42395;stop-color:#000000"
       d="m 0,251.67139 v 32.16324 C 29.949827,202.57801 79.325582,167.44291 210,184.29295 v -23.935 C 156.46298,156.34353 36.106935,174.15108 0,251.67139 Z"
       id="path1414"
       sodipodi:nodetypes="ccccc" />
  </g>
</svg>
